<svg width="192" height="192" viewBox="0 0 192 192" fill="none" xmlns="http://www.w3.org/2000/svg">
  <rect width="192" height="192" rx="24" fill="#a855f7"/>
  <circle cx="96" cy="72" r="24" fill="white"/>
  <path d="M64 120C64 108.954 72.9543 100 84 100H108C119.046 100 128 108.954 128 120V136H64V120Z" fill="white"/>
  <path d="M96 88C103.18 88 109 82.1797 109 75C109 67.8203 103.18 62 96 62C88.8203 62 83 67.8203 83 75C83 82.1797 88.8203 88 96 88Z" fill="#a855f7"/>
  <path d="M72 120C72 112.268 78.268 106 86 106H106C113.732 106 120 112.268 120 120V128H72V120Z" fill="#a855f7"/>
</svg>
