<svg width="192" height="192" viewBox="0 0 192 192" fill="none" xmlns="http://www.w3.org/2000/svg">
  <rect width="192" height="192" rx="24" fill="#ef4444"/>
  <path d="M96 144C78.326 144 64 129.674 64 112C64 94.326 78.326 80 96 80C113.674 80 128 94.326 128 112C128 129.674 113.674 144 96 144Z" fill="white"/>
  <path d="M96 88C82.745 88 72 98.745 72 112C72 125.255 82.745 136 96 136C109.255 136 120 125.255 120 112C120 98.745 109.255 88 96 88ZM96 128C87.163 128 80 120.837 80 112C80 103.163 87.163 96 96 96C104.837 96 112 103.163 112 112C112 120.837 104.837 128 96 128Z" fill="#ef4444"/>
  <path d="M108 104H104V100C104 99.4696 103.789 98.9609 103.414 98.5858C103.039 98.2107 102.531 98 102 98H90C89.4696 98 88.9609 98.2107 88.5858 98.5858C88.2107 98.9609 88 99.4696 88 100V104H84C83.4696 104 82.9609 104.211 82.5858 104.586C82.2107 104.961 82 105.47 82 106V118C82 118.531 82.2107 119.039 82.5858 119.414C82.9609 119.789 83.4696 120 84 120H108C108.531 120 109.039 119.789 109.414 119.414C109.789 119.039 110 118.531 110 118V106C110 105.47 109.789 104.961 109.414 104.586C109.039 104.211 108.531 104 108 104ZM106 116H86V106H88V110C88 110.531 88.2107 111.039 88.5858 111.414C88.9609 111.789 89.4696 112 90 112H102C102.531 112 103.039 111.789 103.414 111.414C103.789 111.039 104 110.531 104 110V106H106V116ZM96 100C94.9391 100 93.9217 100.421 93.1716 101.172C92.4214 101.922 92 102.939 92 104C92 105.061 92.4214 106.078 93.1716 106.828C93.9217 107.579 94.9391 108 96 108C97.0609 108 98.0783 107.579 98.8284 106.828C99.5786 106.078 100 105.061 100 104C100 102.939 99.5786 101.922 98.8284 101.172C98.0783 100.421 97.0609 100 96 100Z" fill="#ef4444"/>
</svg>
