<svg width="192" height="192" viewBox="0 0 192 192" fill="none" xmlns="http://www.w3.org/2000/svg">
  <rect width="192" height="192" rx="24" fill="#f97316"/>
  <path d="M96 48L144 96L96 144L48 96L96 48Z" fill="white"/>
  <path d="M96 64C88.9543 64 83.4289 69.5254 83.4289 76.5711V89.1429H108.571V76.5711C108.571 69.5254 103.046 64 96 64Z" fill="#f97316"/>
  <path d="M76 89.1429V108.571C76 115.617 81.5254 121.143 88.5711 121.143H103.429C110.474 121.143 116 115.617 116 108.571V89.1429H76ZM96 102.857C99.523 102.857 102.857 106.191 102.857 109.714C102.857 113.237 99.523 116.571 96 116.571C92.477 116.571 89.1429 113.237 89.1429 109.714C89.1429 106.191 92.477 102.857 96 102.857Z" fill="#f97316"/>
</svg>
