<svg width="192" height="192" viewBox="0 0 192 192" fill="none" xmlns="http://www.w3.org/2000/svg">
  <rect width="192" height="192" rx="24" fill="#eab308"/>
  <path d="M96 48C90.4772 48 86 52.4772 86 58V74H106V58C106 52.4772 101.523 48 96 48Z" fill="white"/>
  <path d="M76 74V58C76 46.9543 84.9543 38 96 38C107.046 38 116 46.9543 116 58V74H124C129.523 74 134 78.4772 134 84V124C134 129.523 129.523 134 124 134H68C62.4772 134 58 129.523 58 124V84C58 78.4772 62.4772 74 68 74H76ZM86 94C86 89.5817 89.5817 86 94 86H98C102.418 86 106 89.5817 106 94C106 98.4183 102.418 102 98 102H94C89.5817 102 86 98.4183 86 94Z" fill="white"/>
</svg>
